<svg version="1.1" width="850" height="650" xmlns="http://www.w3.org/2000/svg" xmlns:xlink="http://www.w3.org/1999/xlink">
<defs>
<clipPath id="page">
<rect x="0" y="0" width="850" height="650" />
</clipPath>
<clipPath id="page">
<rect x="0" y="0" width="850" height="650" />
</clipPath>
</defs>
<g clip-path="url(#page)">
<path d="M -100.00 0.00 L -100.00 650.00 M -90.00 0.00 L -90.00 650.00 M -80.00 0.00 L -80.00 650.00 M -70.00 0.00 L -70.00 650.00 M -60.00 0.00 L -60.00 650.00 M -50.00 0.00 L -50.00 650.00 M -40.00 0.00 L -40.00 650.00 M -30.00 0.00 L -30.00 650.00 M -20.00 0.00 L -20.00 650.00 M -10.00 0.00 L -10.00 650.00 M 0.00 0.00 L 0.00 650.00 M 10.00 0.00 L 10.00 650.00 M 20.00 0.00 L 20.00 650.00 M 30.00 0.00 L 30.00 650.00 M 40.00 0.00 L 40.00 650.00 M 50.00 0.00 L 50.00 650.00 M 60.00 0.00 L 60.00 650.00 M 70.00 0.00 L 70.00 650.00 M 80.00 0.00 L 80.00 650.00 M 90.00 0.00 L 90.00 650.00 M 100.00 0.00 L 100.00 650.00 M 110.00 0.00 L 110.00 650.00 M 120.00 0.00 L 120.00 650.00 M 130.00 0.00 L 130.00 650.00 M 140.00 0.00 L 140.00 650.00 M 150.00 0.00 L 150.00 650.00 M 160.00 0.00 L 160.00 650.00 M 170.00 0.00 L 170.00 650.00 M 180.00 0.00 L 180.00 650.00 M 190.00 0.00 L 190.00 650.00 M 200.00 0.00 L 200.00 650.00 M 210.00 0.00 L 210.00 650.00 M 220.00 0.00 L 220.00 650.00 M 230.00 0.00 L 230.00 650.00 M 240.00 0.00 L 240.00 650.00 M 250.00 0.00 L 250.00 650.00 M 260.00 0.00 L 260.00 650.00 M 270.00 0.00 L 270.00 650.00 M 280.00 0.00 L 280.00 650.00 M 290.00 0.00 L 290.00 650.00 M 300.00 0.00 L 300.00 650.00 M 310.00 0.00 L 310.00 650.00 M 320.00 0.00 L 320.00 650.00 M 330.00 0.00 L 330.00 650.00 M 340.00 0.00 L 340.00 650.00 M 350.00 0.00 L 350.00 650.00 M 360.00 0.00 L 360.00 650.00 M 370.00 0.00 L 370.00 650.00 M 380.00 0.00 L 380.00 650.00 M 390.00 0.00 L 390.00 650.00 M 400.00 0.00 L 400.00 650.00 M 410.00 0.00 L 410.00 650.00 M 420.00 0.00 L 420.00 650.00 M 430.00 0.00 L 430.00 650.00 M 440.00 0.00 L 440.00 650.00 M 450.00 0.00 L 450.00 650.00 M 460.00 0.00 L 460.00 650.00 M 470.00 0.00 L 470.00 650.00 M 480.00 0.00 L 480.00 650.00 M 490.00 0.00 L 490.00 650.00 M 500.00 0.00 L 500.00 650.00 M 510.00 0.00 L 510.00 650.00 M 520.00 0.00 L 520.00 650.00 M 530.00 0.00 L 530.00 650.00 M 540.00 0.00 L 540.00 650.00 M 550.00 0.00 L 550.00 650.00 M 560.00 0.00 L 560.00 650.00 M 570.00 0.00 L 570.00 650.00 M 580.00 0.00 L 580.00 650.00 M 590.00 0.00 L 590.00 650.00 M 600.00 0.00 L 600.00 650.00 M 610.00 0.00 L 610.00 650.00 M 620.00 0.00 L 620.00 650.00 M 630.00 0.00 L 630.00 650.00 M 640.00 0.00 L 640.00 650.00 M 650.00 0.00 L 650.00 650.00 M 660.00 0.00 L 660.00 650.00 M 670.00 0.00 L 670.00 650.00 M 680.00 0.00 L 680.00 650.00 M 690.00 0.00 L 690.00 650.00 M 700.00 0.00 L 700.00 650.00 M 710.00 0.00 L 710.00 650.00 M 720.00 0.00 L 720.00 650.00 M 730.00 0.00 L 730.00 650.00 M 740.00 0.00 L 740.00 650.00 M 750.00 0.00 L 750.00 650.00 M 760.00 0.00 L 760.00 650.00 M 770.00 0.00 L 770.00 650.00 M 780.00 0.00 L 780.00 650.00 M 790.00 0.00 L 790.00 650.00 M 800.00 0.00 L 800.00 650.00 M 810.00 0.00 L 810.00 650.00 M 820.00 0.00 L 820.00 650.00 M 830.00 0.00 L 830.00 650.00 M 840.00 0.00 L 840.00 650.00 M 850.00 0.00 L 850.00 650.00 M 0.00 -100.00 L 850.00 -100.00 M 0.00 -90.00 L 850.00 -90.00 M 0.00 -80.00 L 850.00 -80.00 M 0.00 -70.00 L 850.00 -70.00 M 0.00 -60.00 L 850.00 -60.00 M 0.00 -50.00 L 850.00 -50.00 M 0.00 -40.00 L 850.00 -40.00 M 0.00 -30.00 L 850.00 -30.00 M 0.00 -20.00 L 850.00 -20.00 M 0.00 -10.00 L 850.00 -10.00 M 0.00 0.00 L 850.00 0.00 M 0.00 10.00 L 850.00 10.00 M 0.00 20.00 L 850.00 20.00 M 0.00 30.00 L 850.00 30.00 M 0.00 40.00 L 850.00 40.00 M 0.00 50.00 L 850.00 50.00 M 0.00 60.00 L 850.00 60.00 M 0.00 70.00 L 850.00 70.00 M 0.00 80.00 L 850.00 80.00 M 0.00 90.00 L 850.00 90.00 M 0.00 100.00 L 850.00 100.00 M 0.00 110.00 L 850.00 110.00 M 0.00 120.00 L 850.00 120.00 M 0.00 130.00 L 850.00 130.00 M 0.00 140.00 L 850.00 140.00 M 0.00 150.00 L 850.00 150.00 M 0.00 160.00 L 850.00 160.00 M 0.00 170.00 L 850.00 170.00 M 0.00 180.00 L 850.00 180.00 M 0.00 190.00 L 850.00 190.00 M 0.00 200.00 L 850.00 200.00 M 0.00 210.00 L 850.00 210.00 M 0.00 220.00 L 850.00 220.00 M 0.00 230.00 L 850.00 230.00 M 0.00 240.00 L 850.00 240.00 M 0.00 250.00 L 850.00 250.00 M 0.00 260.00 L 850.00 260.00 M 0.00 270.00 L 850.00 270.00 M 0.00 280.00 L 850.00 280.00 M 0.00 290.00 L 850.00 290.00 M 0.00 300.00 L 850.00 300.00 M 0.00 310.00 L 850.00 310.00 M 0.00 320.00 L 850.00 320.00 M 0.00 330.00 L 850.00 330.00 M 0.00 340.00 L 850.00 340.00 M 0.00 350.00 L 850.00 350.00 M 0.00 360.00 L 850.00 360.00 M 0.00 370.00 L 850.00 370.00 M 0.00 380.00 L 850.00 380.00 M 0.00 390.00 L 850.00 390.00 M 0.00 400.00 L 850.00 400.00 M 0.00 410.00 L 850.00 410.00 M 0.00 420.00 L 850.00 420.00 M 0.00 430.00 L 850.00 430.00 M 0.00 440.00 L 850.00 440.00 M 0.00 450.00 L 850.00 450.00 M 0.00 460.00 L 850.00 460.00 M 0.00 470.00 L 850.00 470.00 M 0.00 480.00 L 850.00 480.00 M 0.00 490.00 L 850.00 490.00 M 0.00 500.00 L 850.00 500.00 M 0.00 510.00 L 850.00 510.00 M 0.00 520.00 L 850.00 520.00 M 0.00 530.00 L 850.00 530.00 M 0.00 540.00 L 850.00 540.00 M 0.00 550.00 L 850.00 550.00 M 0.00 560.00 L 850.00 560.00 M 0.00 570.00 L 850.00 570.00 M 0.00 580.00 L 850.00 580.00 M 0.00 590.00 L 850.00 590.00 M 0.00 600.00 L 850.00 600.00 M 0.00 610.00 L 850.00 610.00 M 0.00 620.00 L 850.00 620.00 M 0.00 630.00 L 850.00 630.00 M 0.00 640.00 L 850.00 640.00 M 0.00 650.00 L 850.00 650.00" fill="none" stroke="#aff" stroke-width="1" />
<path d="M -100.00 0.00 L -100.00 650.00 M 0.00 0.00 L 0.00 650.00 M 100.00 0.00 L 100.00 650.00 M 200.00 0.00 L 200.00 650.00 M 300.00 0.00 L 300.00 650.00 M 400.00 0.00 L 400.00 650.00 M 500.00 0.00 L 500.00 650.00 M 600.00 0.00 L 600.00 650.00 M 700.00 0.00 L 700.00 650.00 M 800.00 0.00 L 800.00 650.00 M 0.00 -100.00 L 850.00 -100.00 M 0.00 0.00 L 850.00 0.00 M 0.00 100.00 L 850.00 100.00 M 0.00 200.00 L 850.00 200.00 M 0.00 300.00 L 850.00 300.00 M 0.00 400.00 L 850.00 400.00 M 0.00 500.00 L 850.00 500.00 M 0.00 600.00 L 850.00 600.00" fill="none" stroke="#6ff" stroke-width="1" />
<rect x="500.00" y="120.00" width="220.00" height="56.00" fill="none" stroke="rgba(0,255,0,0.5)" stroke-width="1" />
<rect x="500.00" y="120.00" width="220.00" height="56.00" stroke="none" fill="rgba(0,255,0,0.1)" />
<path d="M 220.00 100.00 L 320.00 100.00" fill="none" stroke="#000" stroke-width="2" />
<circle cx="220.00" cy="100.00" r="4.00" stroke="none" fill="#fff" />
<circle cx="220.00" cy="100.00" r="4.00" fill="none" stroke="#000" stroke-width="2" />
<circle cx="320.00" cy="100.00" r="4.00" stroke="none" fill="#fff" />
<circle cx="320.00" cy="100.00" r="4.00" fill="none" stroke="#000" stroke-width="2" />
<path d="M 220.00 160.00 L 320.00 160.00" fill="none" stroke="#000" stroke-width="2" />
<circle cx="220.00" cy="160.00" r="4.00" stroke="none" fill="#fff" />
<circle cx="220.00" cy="160.00" r="4.00" fill="none" stroke="#000" stroke-width="2" />
<circle cx="320.00" cy="160.00" r="4.00" stroke="none" fill="#fff" />
<circle cx="320.00" cy="160.00" r="4.00" fill="none" stroke="#000" stroke-width="2" />
<path d="M 220.00 220.00 L 320.00 220.00" fill="none" stroke="#000" stroke-width="2" />
<circle cx="220.00" cy="220.00" r="4.00" stroke="none" fill="#fff" />
<circle cx="220.00" cy="220.00" r="4.00" fill="none" stroke="#000" stroke-width="2" />
<circle cx="320.00" cy="220.00" r="4.00" stroke="none" fill="#fff" />
<circle cx="320.00" cy="220.00" r="4.00" fill="none" stroke="#000" stroke-width="2" />
<path d="M 320.00 140.00 L 340.00 140.00" fill="none" stroke="#000" stroke-width="2" />
<path d="M 320.00 160.00 L 340.00 160.00" fill="none" stroke="#000" stroke-width="2" />
<path d="M 380.00 150.00 L 400.00 150.00" fill="none" stroke="#000" stroke-width="2" />
<path d="M 360.00 130.00 L 340.00 130.00 L 340.00 170.00 L 360.00 170.00" fill="none" stroke="#000" stroke-width="2" />
<path d="M 360.00 130.00 C 370.00 130.00 , 380.00 140.00 , 380.00 150.00" fill="none" stroke="#000" stroke-width="2" />
<path d="M 360.00 170.00 C 370.00 170.00 , 380.00 160.00 , 380.00 150.00" fill="none" stroke="#000" stroke-width="2" />
<circle cx="320.00" cy="140.00" r="4.00" stroke="none" fill="#fff" />
<circle cx="320.00" cy="140.00" r="4.00" fill="none" stroke="#000" stroke-width="2" />
<circle cx="320.00" cy="160.00" r="4.00" stroke="none" fill="#fff" />
<circle cx="320.00" cy="160.00" r="4.00" fill="none" stroke="#000" stroke-width="2" />
<circle cx="400.00" cy="150.00" r="4.00" stroke="none" fill="#fff" />
<circle cx="400.00" cy="150.00" r="4.00" fill="none" stroke="#000" stroke-width="2" />
<path d="M 320.00 100.00 L 320.00 140.00" fill="none" stroke="#000" stroke-width="2" />
<circle cx="320.00" cy="100.00" r="4.00" stroke="none" fill="#fff" />
<circle cx="320.00" cy="100.00" r="4.00" fill="none" stroke="#000" stroke-width="2" />
<circle cx="320.00" cy="140.00" r="4.00" stroke="none" fill="#fff" />
<circle cx="320.00" cy="140.00" r="4.00" fill="none" stroke="#000" stroke-width="2" />
<path d="M 290.00 100.00 L 290.00 240.00" fill="none" stroke="#000" stroke-width="2" />
<circle cx="290.00" cy="100.00" r="4.00" stroke="none" fill="#fff" />
<circle cx="290.00" cy="100.00" r="4.00" fill="none" stroke="#000" stroke-width="2" />
<circle cx="290.00" cy="240.00" r="4.00" stroke="none" fill="#fff" />
<circle cx="290.00" cy="240.00" r="4.00" fill="none" stroke="#000" stroke-width="2" />
<path d="M 290.00 240.00 L 320.00 240.00" fill="none" stroke="#000" stroke-width="2" />
<circle cx="290.00" cy="240.00" r="4.00" stroke="none" fill="#fff" />
<circle cx="290.00" cy="240.00" r="4.00" fill="none" stroke="#000" stroke-width="2" />
<circle cx="320.00" cy="240.00" r="4.00" stroke="none" fill="#fff" />
<circle cx="320.00" cy="240.00" r="4.00" fill="none" stroke="#000" stroke-width="2" />
<path d="M 400.00 150.00 L 440.00 150.00" fill="none" stroke="#000" stroke-width="2" />
<circle cx="400.00" cy="150.00" r="4.00" stroke="none" fill="#fff" />
<circle cx="400.00" cy="150.00" r="4.00" fill="none" stroke="#000" stroke-width="2" />
<circle cx="440.00" cy="150.00" r="4.00" stroke="none" fill="#fff" />
<circle cx="440.00" cy="150.00" r="4.00" fill="none" stroke="#000" stroke-width="2" />
<path d="M 440.00 150.00 L 460.00 150.00" fill="none" stroke="#000" stroke-width="2" />
<path d="M 440.00 170.00 L 460.00 170.00" fill="none" stroke="#000" stroke-width="2" />
<path d="M 500.00 160.00 L 520.00 160.00" fill="none" stroke="#000" stroke-width="2" />
<path d="M 480.00 140.00 L 460.00 140.00 L 460.00 180.00 L 480.00 180.00" fill="none" stroke="#000" stroke-width="2" />
<path d="M 480.00 140.00 C 490.00 140.00 , 500.00 150.00 , 500.00 160.00" fill="none" stroke="#000" stroke-width="2" />
<path d="M 480.00 180.00 C 490.00 180.00 , 500.00 170.00 , 500.00 160.00" fill="none" stroke="#000" stroke-width="2" />
<circle cx="440.00" cy="150.00" r="4.00" stroke="none" fill="#fff" />
<circle cx="440.00" cy="150.00" r="4.00" fill="none" stroke="#000" stroke-width="2" />
<circle cx="440.00" cy="170.00" r="4.00" stroke="none" fill="#fff" />
<circle cx="440.00" cy="170.00" r="4.00" fill="none" stroke="#000" stroke-width="2" />
<circle cx="520.00" cy="160.00" r="4.00" stroke="none" fill="#fff" />
<circle cx="520.00" cy="160.00" r="4.00" fill="none" stroke="#000" stroke-width="2" />
<path d="M 320.00 220.00 L 341.00 220.00" fill="none" stroke="#000" stroke-width="2" />
<path d="M 320.00 230.00 L 343.00 230.00" fill="none" stroke="#000" stroke-width="2" />
<path d="M 320.00 240.00 L 345.00 240.00" fill="none" stroke="#000" stroke-width="2" />
<path d="M 320.00 250.00 L 343.00 250.00" fill="none" stroke="#000" stroke-width="2" />
<path d="M 320.00 260.00 L 341.00 260.00" fill="none" stroke="#000" stroke-width="2" />
<path d="M 380.00 240.00 L 400.00 240.00" fill="none" stroke="#000" stroke-width="2" />
<path d="M 340.00 220.00 C 349.00 229.00 , 349.00 251.00 , 340.00 260.00" fill="none" stroke="#000" stroke-width="2" />
<path d="M 340.00 220.00 C 360.00 220.00 , 375.00 230.00 , 380.00 240.00" fill="none" stroke="#000" stroke-width="2" />
<path d="M 340.00 260.00 C 360.00 260.00 , 375.00 250.00 , 380.00 240.00" fill="none" stroke="#000" stroke-width="2" />
<circle cx="320.00" cy="220.00" r="4.00" stroke="none" fill="#fff" />
<circle cx="320.00" cy="220.00" r="4.00" fill="none" stroke="#000" stroke-width="2" />
<circle cx="320.00" cy="230.00" r="4.00" stroke="none" fill="#fff" />
<circle cx="320.00" cy="230.00" r="4.00" fill="none" stroke="#000" stroke-width="2" />
<circle cx="320.00" cy="240.00" r="4.00" stroke="none" fill="#fff" />
<circle cx="320.00" cy="240.00" r="4.00" fill="none" stroke="#000" stroke-width="2" />
<circle cx="320.00" cy="250.00" r="4.00" stroke="none" fill="#fff" />
<circle cx="320.00" cy="250.00" r="4.00" fill="none" stroke="#000" stroke-width="2" />
<circle cx="320.00" cy="260.00" r="4.00" stroke="none" fill="#fff" />
<circle cx="320.00" cy="260.00" r="4.00" fill="none" stroke="#000" stroke-width="2" />
<circle cx="400.00" cy="240.00" r="4.00" stroke="none" fill="#fff" />
<circle cx="400.00" cy="240.00" r="4.00" fill="none" stroke="#000" stroke-width="2" />
<path d="M 400.00 150.00 L 400.00 210.00" fill="none" stroke="#000" stroke-width="2" />
<circle cx="400.00" cy="150.00" r="4.00" stroke="none" fill="#fff" />
<circle cx="400.00" cy="150.00" r="4.00" fill="none" stroke="#000" stroke-width="2" />
<circle cx="400.00" cy="210.00" r="4.00" stroke="none" fill="#fff" />
<circle cx="400.00" cy="210.00" r="4.00" fill="none" stroke="#000" stroke-width="2" />
<path d="M 400.00 210.00 L 300.00 210.00" fill="none" stroke="#000" stroke-width="2" />
<circle cx="400.00" cy="210.00" r="4.00" stroke="none" fill="#fff" />
<circle cx="400.00" cy="210.00" r="4.00" fill="none" stroke="#000" stroke-width="2" />
<circle cx="300.00" cy="210.00" r="4.00" stroke="none" fill="#fff" />
<circle cx="300.00" cy="210.00" r="4.00" fill="none" stroke="#000" stroke-width="2" />
<path d="M 300.00 210.00 L 300.00 260.00" fill="none" stroke="#000" stroke-width="2" />
<circle cx="300.00" cy="210.00" r="4.00" stroke="none" fill="#fff" />
<circle cx="300.00" cy="210.00" r="4.00" fill="none" stroke="#000" stroke-width="2" />
<circle cx="300.00" cy="260.00" r="4.00" stroke="none" fill="#fff" />
<circle cx="300.00" cy="260.00" r="4.00" fill="none" stroke="#000" stroke-width="2" />
<path d="M 300.00 260.00 L 320.00 260.00" fill="none" stroke="#000" stroke-width="2" />
<circle cx="300.00" cy="260.00" r="4.00" stroke="none" fill="#fff" />
<circle cx="300.00" cy="260.00" r="4.00" fill="none" stroke="#000" stroke-width="2" />
<circle cx="320.00" cy="260.00" r="4.00" stroke="none" fill="#fff" />
<circle cx="320.00" cy="260.00" r="4.00" fill="none" stroke="#000" stroke-width="2" />
<path d="M 400.00 240.00 L 440.00 240.00" fill="none" stroke="#000" stroke-width="2" />
<circle cx="400.00" cy="240.00" r="4.00" stroke="none" fill="#fff" />
<circle cx="400.00" cy="240.00" r="4.00" fill="none" stroke="#000" stroke-width="2" />
<circle cx="440.00" cy="240.00" r="4.00" stroke="none" fill="#fff" />
<circle cx="440.00" cy="240.00" r="4.00" fill="none" stroke="#000" stroke-width="2" />
<path d="M 440.00 240.00 L 440.00 170.00" fill="none" stroke="#000" stroke-width="2" />
<circle cx="440.00" cy="240.00" r="4.00" stroke="none" fill="#fff" />
<circle cx="440.00" cy="240.00" r="4.00" fill="none" stroke="#000" stroke-width="2" />
<circle cx="440.00" cy="170.00" r="4.00" stroke="none" fill="#fff" />
<circle cx="440.00" cy="170.00" r="4.00" fill="none" stroke="#000" stroke-width="2" />
<text x="216.00" y="90.00" font-family="Arial,Helvetica,sans-serif" font-size="14" text-anchor="start" stroke="none" fill="#000" >X1</text>
<text x="216.00" y="150.00" font-family="Arial,Helvetica,sans-serif" font-size="14" text-anchor="start" stroke="none" fill="#000" >X2</text>
<text x="216.00" y="210.00" font-family="Arial,Helvetica,sans-serif" font-size="14" text-anchor="start" stroke="none" fill="#000" >X3</text>
<text x="516.00" y="150.00" font-family="Arial,Helvetica,sans-serif" font-size="14" text-anchor="start" stroke="none" fill="#000" >formula</text>
</g>
</svg>
